<mxfile host="65bd71144e">
    <diagram name="Dashboard" id="03018318-947c-dd8e-b7a3-06fadd420f32">
        <mxGraphModel dx="1396" dy="1023" grid="1" gridSize="10" guides="1" tooltips="1" connect="1" arrows="1" fold="1" page="1" pageScale="1" pageWidth="1100" pageHeight="850" background="none" math="0" shadow="0">
            <root>
                <mxCell id="0"/>
                <mxCell id="1" parent="0"/>
                <mxCell id="677b7b8949515195-1" value="" style="whiteSpace=wrap;html=1;rounded=0;shadow=0;labelBackgroundColor=none;strokeColor=#000000;strokeWidth=1;fillColor=none;fontFamily=Verdana;fontSize=12;fontColor=#000000;align=center;comic=1;" parent="1" vertex="1">
                    <mxGeometry x="20" y="20" width="1060" height="810" as="geometry"/>
                </mxCell>
                <mxCell id="677b7b8949515195-2" value="LOGO" style="whiteSpace=wrap;html=1;rounded=0;shadow=0;labelBackgroundColor=none;strokeWidth=1;fontFamily=Verdana;fontSize=28;align=center;comic=1;" parent="1" vertex="1">
                    <mxGeometry x="40" y="60" width="190" height="50" as="geometry"/>
                </mxCell>
                <mxCell id="677b7b8949515195-8" value="" style="whiteSpace=wrap;html=1;rounded=0;shadow=0;labelBackgroundColor=none;strokeWidth=1;fillColor=none;fontFamily=Verdana;fontSize=12;align=center;comic=1;" parent="1" vertex="1">
                    <mxGeometry x="30" y="230" width="200" height="590" as="geometry"/>
                </mxCell>
                <mxCell id="677b7b8949515195-9" value="" style="line;strokeWidth=1;html=1;rounded=0;shadow=0;labelBackgroundColor=none;fillColor=none;fontFamily=Verdana;fontSize=14;fontColor=#000000;align=center;comic=1;" parent="1" vertex="1">
                    <mxGeometry x="20" y="140" width="1060" height="10" as="geometry"/>
                </mxCell>
                <mxCell id="677b7b8949515195-10" value="" style="whiteSpace=wrap;html=1;rounded=0;shadow=0;labelBackgroundColor=none;strokeWidth=1;fillColor=none;fontFamily=Verdana;fontSize=12;align=center;comic=1;" parent="1" vertex="1">
                    <mxGeometry x="30" y="160" width="1040" height="50" as="geometry"/>
                </mxCell>
                <mxCell id="677b7b8949515195-11" value="Home" style="text;html=1;points=[];align=left;verticalAlign=top;spacingTop=-4;fontSize=14;fontFamily=Verdana" parent="1" vertex="1">
                    <mxGeometry x="60" y="175" width="60" height="20" as="geometry"/>
                </mxCell>
                <mxCell id="677b7b8949515195-12" value="Produtos" style="text;html=1;points=[];align=left;verticalAlign=top;spacingTop=-4;fontSize=14;fontFamily=Verdana" parent="1" vertex="1">
                    <mxGeometry x="270" y="175" width="60" height="20" as="geometry"/>
                </mxCell>
                <mxCell id="677b7b8949515195-13" value="Categorias" style="text;html=1;points=[];align=left;verticalAlign=top;spacingTop=-4;fontSize=14;fontFamily=Verdana" parent="1" vertex="1">
                    <mxGeometry x="370" y="175" width="60" height="20" as="geometry"/>
                </mxCell>
                <mxCell id="677b7b8949515195-14" value="Vendas" style="text;html=1;points=[];align=left;verticalAlign=top;spacingTop=-4;fontSize=14;fontFamily=Verdana" parent="1" vertex="1">
                    <mxGeometry x="480" y="175" width="60" height="20" as="geometry"/>
                </mxCell>
                <mxCell id="677b7b8949515195-26" value="" style="whiteSpace=wrap;html=1;rounded=0;shadow=0;labelBackgroundColor=none;strokeWidth=1;fillColor=none;fontFamily=Verdana;fontSize=12;align=center;comic=1;" parent="1" vertex="1">
                    <mxGeometry x="250" y="230" width="820" height="130" as="geometry"/>
                </mxCell>
                <mxCell id="677b7b8949515195-27" value="Clientes" style="text;html=1;points=[];align=left;verticalAlign=top;spacingTop=-4;fontSize=14;fontFamily=Verdana" parent="1" vertex="1">
                    <mxGeometry x="40" y="250" width="170" height="20" as="geometry"/>
                </mxCell>
                <mxCell id="677b7b8949515195-28" value="Produtos" style="text;html=1;points=[];align=left;verticalAlign=top;spacingTop=-4;fontSize=14;fontFamily=Verdana" parent="1" vertex="1">
                    <mxGeometry x="40" y="286" width="170" height="20" as="geometry"/>
                </mxCell>
                <mxCell id="677b7b8949515195-29" value="Categorias" style="text;html=1;points=[];align=left;verticalAlign=top;spacingTop=-4;fontSize=14;fontFamily=Verdana" parent="1" vertex="1">
                    <mxGeometry x="40" y="321" width="170" height="20" as="geometry"/>
                </mxCell>
                <mxCell id="677b7b8949515195-30" value="Vendas" style="text;html=1;points=[];align=left;verticalAlign=top;spacingTop=-4;fontSize=14;fontFamily=Verdana" parent="1" vertex="1">
                    <mxGeometry x="40" y="357" width="170" height="20" as="geometry"/>
                </mxCell>
                <mxCell id="677b7b8949515195-31" value="Usuários" style="text;html=1;points=[];align=left;verticalAlign=top;spacingTop=-4;fontSize=14;fontFamily=Verdana" parent="1" vertex="1">
                    <mxGeometry x="40" y="464" width="170" height="20" as="geometry"/>
                </mxCell>
                <mxCell id="677b7b8949515195-39" value="Estoque" style="text;html=1;points=[];align=left;verticalAlign=top;spacingTop=-4;fontSize=14;fontFamily=Verdana" parent="1" vertex="1">
                    <mxGeometry x="40" y="393" width="170" height="20" as="geometry"/>
                </mxCell>
                <mxCell id="677b7b8949515195-40" value="Lojas" style="text;html=1;points=[];align=left;verticalAlign=top;spacingTop=-4;fontSize=14;fontFamily=Verdana" parent="1" vertex="1">
                    <mxGeometry x="40" y="429" width="170" height="20" as="geometry"/>
                </mxCell>
                <mxCell id="Ejt34_SpwgMhxHEA_t5q-1" value="Clientes" style="text;html=1;points=[];align=left;verticalAlign=top;spacingTop=-4;fontSize=14;fontFamily=Verdana" parent="1" vertex="1">
                    <mxGeometry x="160" y="175" width="60" height="20" as="geometry"/>
                </mxCell>
                <mxCell id="Ejt34_SpwgMhxHEA_t5q-3" value="Estoque" style="text;html=1;points=[];align=left;verticalAlign=top;spacingTop=-4;fontSize=14;fontFamily=Verdana" parent="1" vertex="1">
                    <mxGeometry x="560" y="175" width="60" height="20" as="geometry"/>
                </mxCell>
                <mxCell id="Ejt34_SpwgMhxHEA_t5q-4" value="Lojas" style="text;html=1;points=[];align=left;verticalAlign=top;spacingTop=-4;fontSize=14;fontFamily=Verdana" parent="1" vertex="1">
                    <mxGeometry x="660" y="175" width="60" height="20" as="geometry"/>
                </mxCell>
                <mxCell id="Ejt34_SpwgMhxHEA_t5q-5" value="Usuários" style="text;html=1;points=[];align=left;verticalAlign=top;spacingTop=-4;fontSize=14;fontFamily=Verdana" parent="1" vertex="1">
                    <mxGeometry x="740" y="175" width="60" height="20" as="geometry"/>
                </mxCell>
                <mxCell id="Ejt34_SpwgMhxHEA_t5q-6" value="Logout" style="text;html=1;points=[];align=left;verticalAlign=top;spacingTop=-4;fontSize=14;fontFamily=Verdana" parent="1" vertex="1">
                    <mxGeometry x="990" y="60" width="60" height="20" as="geometry"/>
                </mxCell>
                <mxCell id="Ejt34_SpwgMhxHEA_t5q-7" value="" style="rounded=0;whiteSpace=wrap;html=1;" parent="1" vertex="1">
                    <mxGeometry x="270" y="266" width="180" height="60" as="geometry"/>
                </mxCell>
                <mxCell id="Ejt34_SpwgMhxHEA_t5q-13" value="" style="rounded=0;whiteSpace=wrap;html=1;" parent="1" vertex="1">
                    <mxGeometry x="470" y="266" width="180" height="60" as="geometry"/>
                </mxCell>
                <mxCell id="Ejt34_SpwgMhxHEA_t5q-14" value="" style="rounded=0;whiteSpace=wrap;html=1;" parent="1" vertex="1">
                    <mxGeometry x="670" y="265" width="180" height="60" as="geometry"/>
                </mxCell>
                <mxCell id="Ejt34_SpwgMhxHEA_t5q-15" value="" style="rounded=0;whiteSpace=wrap;html=1;" parent="1" vertex="1">
                    <mxGeometry x="870" y="265" width="180" height="60" as="geometry"/>
                </mxCell>
                <mxCell id="Ejt34_SpwgMhxHEA_t5q-17" value="" style="whiteSpace=wrap;html=1;rounded=0;shadow=0;labelBackgroundColor=none;strokeWidth=1;fillColor=none;fontFamily=Verdana;fontSize=12;align=center;comic=1;" parent="1" vertex="1">
                    <mxGeometry x="250" y="390" width="400" height="260" as="geometry"/>
                </mxCell>
                <mxCell id="Ejt34_SpwgMhxHEA_t5q-18" value="" style="verticalLabelPosition=bottom;shadow=0;dashed=0;align=center;html=1;verticalAlign=top;strokeWidth=1;shape=mxgraph.mockup.graphics.lineChart;strokeColor=none;strokeColor2=#666666;strokeColor3=#008cff;strokeColor4=#dddddd;" parent="1" vertex="1">
                    <mxGeometry x="260" y="435" width="370" height="200" as="geometry"/>
                </mxCell>
                <mxCell id="Ejt34_SpwgMhxHEA_t5q-19" value="Vendas" style="text;html=1;points=[];align=left;verticalAlign=top;spacingTop=-4;fontSize=14;fontFamily=Verdana" parent="1" vertex="1">
                    <mxGeometry x="255" y="393" width="170" height="20" as="geometry"/>
                </mxCell>
                <mxCell id="Ejt34_SpwgMhxHEA_t5q-21" value="" style="whiteSpace=wrap;html=1;rounded=0;shadow=0;labelBackgroundColor=none;strokeWidth=1;fillColor=none;fontFamily=Verdana;fontSize=12;align=center;comic=1;" parent="1" vertex="1">
                    <mxGeometry x="670" y="390" width="400" height="260" as="geometry"/>
                </mxCell>
                <mxCell id="Ejt34_SpwgMhxHEA_t5q-22" value="" style="verticalLabelPosition=bottom;shadow=0;dashed=0;align=center;html=1;verticalAlign=top;strokeWidth=1;shape=mxgraph.mockup.graphics.lineChart;strokeColor=none;strokeColor2=#666666;strokeColor3=#008cff;strokeColor4=#dddddd;" parent="1" vertex="1">
                    <mxGeometry x="690" y="435" width="360" height="200" as="geometry"/>
                </mxCell>
                <mxCell id="Ejt34_SpwgMhxHEA_t5q-23" value="Clientes Novos" style="text;html=1;points=[];align=left;verticalAlign=top;spacingTop=-4;fontSize=14;fontFamily=Verdana" parent="1" vertex="1">
                    <mxGeometry x="680" y="393" width="170" height="20" as="geometry"/>
                </mxCell>
                <mxCell id="Ejt34_SpwgMhxHEA_t5q-24" value="" style="whiteSpace=wrap;html=1;rounded=0;shadow=0;labelBackgroundColor=none;strokeWidth=1;fillColor=none;fontFamily=Verdana;fontSize=12;align=center;comic=1;" parent="1" vertex="1">
                    <mxGeometry x="250" y="670" width="590" height="150" as="geometry"/>
                </mxCell>
                <mxCell id="Ejt34_SpwgMhxHEA_t5q-25" value="&lt;table cellpadding=&quot;4&quot; cellspacing=&quot;0&quot; border=&quot;1&quot; style=&quot;font-size:1em;width:100%;height:100%;&quot;&gt;&lt;tbody&gt;&lt;tr&gt;&lt;th&gt;Status da Venda&lt;/th&gt;&lt;th&gt;Hoje&lt;/th&gt;&lt;td&gt;&lt;span style=&quot;font-weight: 700;&quot;&gt;Semana&lt;/span&gt;&lt;br&gt;&lt;/td&gt;&lt;td&gt;&lt;span style=&quot;font-weight: 700;&quot;&gt;Mês&lt;/span&gt;&lt;br&gt;&lt;/td&gt;&lt;td&gt;&lt;span style=&quot;font-weight: 700;&quot;&gt;Ano&lt;/span&gt;&lt;br&gt;&lt;/td&gt;&lt;td&gt;&lt;span style=&quot;font-weight: 700;&quot;&gt;Total&lt;/span&gt;&lt;br&gt;&lt;/td&gt;&lt;/tr&gt;&lt;tr&gt;&lt;td&gt;Completa&lt;/td&gt;&lt;td&gt;&lt;/td&gt;&lt;td&gt;&lt;br&gt;&lt;/td&gt;&lt;td&gt;&lt;br&gt;&lt;/td&gt;&lt;td&gt;&lt;br&gt;&lt;/td&gt;&lt;td&gt;&lt;br&gt;&lt;/td&gt;&lt;/tr&gt;&lt;tr&gt;&lt;td&gt;Aguardando Entrega&lt;/td&gt;&lt;td&gt;&lt;br&gt;&lt;/td&gt;&lt;td&gt;&lt;br&gt;&lt;/td&gt;&lt;td&gt;&lt;br&gt;&lt;/td&gt;&lt;td&gt;&lt;br&gt;&lt;/td&gt;&lt;td&gt;&lt;br&gt;&lt;/td&gt;&lt;/tr&gt;&lt;/tbody&gt;&lt;/table&gt; " style="verticalAlign=top;align=left;overflow=fill;fontSize=12;fontFamily=Helvetica;html=1" parent="1" vertex="1">
                    <mxGeometry x="270" y="720" width="560" height="80" as="geometry"/>
                </mxCell>
                <mxCell id="Ejt34_SpwgMhxHEA_t5q-26" value="Vendas" style="text;html=1;points=[];align=left;verticalAlign=top;spacingTop=-4;fontSize=14;fontFamily=Verdana" parent="1" vertex="1">
                    <mxGeometry x="255" y="680" width="170" height="20" as="geometry"/>
                </mxCell>
                <mxCell id="Ejt34_SpwgMhxHEA_t5q-27" value="" style="whiteSpace=wrap;html=1;rounded=0;shadow=0;labelBackgroundColor=none;strokeWidth=1;fillColor=none;fontFamily=Verdana;fontSize=12;align=center;comic=1;" parent="1" vertex="1">
                    <mxGeometry x="860" y="670" width="210" height="150" as="geometry"/>
                </mxCell>
                <mxCell id="Ejt34_SpwgMhxHEA_t5q-28" value="Encomendas" style="text;html=1;points=[];align=left;verticalAlign=top;spacingTop=-4;fontSize=14;fontFamily=Verdana" parent="1" vertex="1">
                    <mxGeometry x="870" y="685" width="170" height="20" as="geometry"/>
                </mxCell>
                <mxCell id="Ejt34_SpwgMhxHEA_t5q-29" value="&lt;table cellpadding=&quot;4&quot; cellspacing=&quot;0&quot; border=&quot;1&quot; style=&quot;font-size:1em;width:100%;height:100%;&quot;&gt;&lt;tbody&gt;&lt;tr&gt;&lt;th&gt;Status da Venda&lt;/th&gt;&lt;th&gt;Total&lt;/th&gt;&lt;/tr&gt;&lt;tr&gt;&lt;td&gt;Completa&lt;/td&gt;&lt;td&gt;&lt;/td&gt;&lt;/tr&gt;&lt;tr&gt;&lt;td&gt;Aguardando Entrega&lt;/td&gt;&lt;td&gt;&lt;br&gt;&lt;/td&gt;&lt;/tr&gt;&lt;/tbody&gt;&lt;/table&gt; " style="verticalAlign=top;align=left;overflow=fill;fontSize=12;fontFamily=Helvetica;html=1" parent="1" vertex="1">
                    <mxGeometry x="870" y="720" width="190" height="80" as="geometry"/>
                </mxCell>
            </root>
        </mxGraphModel>
    </diagram>
    <diagram id="KYusdHCSVpUGa7FTSaPb" name="Layout">
        <mxGraphModel dx="1149" dy="842" grid="1" gridSize="10" guides="1" tooltips="1" connect="1" arrows="1" fold="1" page="1" pageScale="1" pageWidth="827" pageHeight="1169" math="0" shadow="0">
            <root>
                <mxCell id="1DYZK0oK3XWiqWDl5Tdy-0"/>
                <mxCell id="1DYZK0oK3XWiqWDl5Tdy-1" parent="1DYZK0oK3XWiqWDl5Tdy-0"/>
                <mxCell id="HchXb4zsfwPGnbAuGZYZ-1" value="LOGO" style="whiteSpace=wrap;html=1;rounded=0;shadow=0;labelBackgroundColor=none;strokeWidth=1;fontFamily=Verdana;fontSize=28;align=center;comic=1;" vertex="1" parent="1DYZK0oK3XWiqWDl5Tdy-1">
                    <mxGeometry x="40" y="60" width="190" height="50" as="geometry"/>
                </mxCell>
                <mxCell id="HchXb4zsfwPGnbAuGZYZ-2" value="" style="whiteSpace=wrap;html=1;rounded=0;shadow=0;labelBackgroundColor=none;strokeWidth=1;fillColor=none;fontFamily=Verdana;fontSize=12;align=center;comic=1;" vertex="1" parent="1DYZK0oK3XWiqWDl5Tdy-1">
                    <mxGeometry x="30" y="230" width="200" height="590" as="geometry"/>
                </mxCell>
                <mxCell id="HchXb4zsfwPGnbAuGZYZ-3" value="" style="line;strokeWidth=1;html=1;rounded=0;shadow=0;labelBackgroundColor=none;fillColor=none;fontFamily=Verdana;fontSize=14;fontColor=#000000;align=center;comic=1;" vertex="1" parent="1DYZK0oK3XWiqWDl5Tdy-1">
                    <mxGeometry x="20" y="140" width="1060" height="10" as="geometry"/>
                </mxCell>
                <mxCell id="HchXb4zsfwPGnbAuGZYZ-4" value="" style="whiteSpace=wrap;html=1;rounded=0;shadow=0;labelBackgroundColor=none;strokeWidth=1;fillColor=none;fontFamily=Verdana;fontSize=12;align=center;comic=1;" vertex="1" parent="1DYZK0oK3XWiqWDl5Tdy-1">
                    <mxGeometry x="30" y="160" width="1040" height="50" as="geometry"/>
                </mxCell>
                <mxCell id="HchXb4zsfwPGnbAuGZYZ-5" value="Home" style="text;html=1;points=[];align=left;verticalAlign=top;spacingTop=-4;fontSize=14;fontFamily=Verdana" vertex="1" parent="1DYZK0oK3XWiqWDl5Tdy-1">
                    <mxGeometry x="60" y="175" width="60" height="20" as="geometry"/>
                </mxCell>
                <mxCell id="HchXb4zsfwPGnbAuGZYZ-6" value="Produtos" style="text;html=1;points=[];align=left;verticalAlign=top;spacingTop=-4;fontSize=14;fontFamily=Verdana" vertex="1" parent="1DYZK0oK3XWiqWDl5Tdy-1">
                    <mxGeometry x="270" y="175" width="60" height="20" as="geometry"/>
                </mxCell>
                <mxCell id="HchXb4zsfwPGnbAuGZYZ-7" value="Categorias" style="text;html=1;points=[];align=left;verticalAlign=top;spacingTop=-4;fontSize=14;fontFamily=Verdana" vertex="1" parent="1DYZK0oK3XWiqWDl5Tdy-1">
                    <mxGeometry x="370" y="175" width="60" height="20" as="geometry"/>
                </mxCell>
                <mxCell id="HchXb4zsfwPGnbAuGZYZ-8" value="Vendas" style="text;html=1;points=[];align=left;verticalAlign=top;spacingTop=-4;fontSize=14;fontFamily=Verdana" vertex="1" parent="1DYZK0oK3XWiqWDl5Tdy-1">
                    <mxGeometry x="480" y="175" width="60" height="20" as="geometry"/>
                </mxCell>
                <mxCell id="HchXb4zsfwPGnbAuGZYZ-10" value="Clientes" style="text;html=1;points=[];align=left;verticalAlign=top;spacingTop=-4;fontSize=14;fontFamily=Verdana" vertex="1" parent="1DYZK0oK3XWiqWDl5Tdy-1">
                    <mxGeometry x="40" y="250" width="170" height="20" as="geometry"/>
                </mxCell>
                <mxCell id="HchXb4zsfwPGnbAuGZYZ-11" value="Produtos" style="text;html=1;points=[];align=left;verticalAlign=top;spacingTop=-4;fontSize=14;fontFamily=Verdana" vertex="1" parent="1DYZK0oK3XWiqWDl5Tdy-1">
                    <mxGeometry x="40" y="286" width="170" height="20" as="geometry"/>
                </mxCell>
                <mxCell id="HchXb4zsfwPGnbAuGZYZ-12" value="Categorias" style="text;html=1;points=[];align=left;verticalAlign=top;spacingTop=-4;fontSize=14;fontFamily=Verdana" vertex="1" parent="1DYZK0oK3XWiqWDl5Tdy-1">
                    <mxGeometry x="40" y="321" width="170" height="20" as="geometry"/>
                </mxCell>
                <mxCell id="HchXb4zsfwPGnbAuGZYZ-13" value="Vendas" style="text;html=1;points=[];align=left;verticalAlign=top;spacingTop=-4;fontSize=14;fontFamily=Verdana" vertex="1" parent="1DYZK0oK3XWiqWDl5Tdy-1">
                    <mxGeometry x="40" y="357" width="170" height="20" as="geometry"/>
                </mxCell>
                <mxCell id="HchXb4zsfwPGnbAuGZYZ-14" value="Usuários" style="text;html=1;points=[];align=left;verticalAlign=top;spacingTop=-4;fontSize=14;fontFamily=Verdana" vertex="1" parent="1DYZK0oK3XWiqWDl5Tdy-1">
                    <mxGeometry x="40" y="464" width="170" height="20" as="geometry"/>
                </mxCell>
                <mxCell id="HchXb4zsfwPGnbAuGZYZ-15" value="Estoque" style="text;html=1;points=[];align=left;verticalAlign=top;spacingTop=-4;fontSize=14;fontFamily=Verdana" vertex="1" parent="1DYZK0oK3XWiqWDl5Tdy-1">
                    <mxGeometry x="40" y="393" width="170" height="20" as="geometry"/>
                </mxCell>
                <mxCell id="HchXb4zsfwPGnbAuGZYZ-16" value="Lojas" style="text;html=1;points=[];align=left;verticalAlign=top;spacingTop=-4;fontSize=14;fontFamily=Verdana" vertex="1" parent="1DYZK0oK3XWiqWDl5Tdy-1">
                    <mxGeometry x="40" y="429" width="170" height="20" as="geometry"/>
                </mxCell>
                <mxCell id="HchXb4zsfwPGnbAuGZYZ-17" value="Clientes" style="text;html=1;points=[];align=left;verticalAlign=top;spacingTop=-4;fontSize=14;fontFamily=Verdana" vertex="1" parent="1DYZK0oK3XWiqWDl5Tdy-1">
                    <mxGeometry x="160" y="175" width="60" height="20" as="geometry"/>
                </mxCell>
                <mxCell id="HchXb4zsfwPGnbAuGZYZ-18" value="Estoque" style="text;html=1;points=[];align=left;verticalAlign=top;spacingTop=-4;fontSize=14;fontFamily=Verdana" vertex="1" parent="1DYZK0oK3XWiqWDl5Tdy-1">
                    <mxGeometry x="560" y="175" width="60" height="20" as="geometry"/>
                </mxCell>
                <mxCell id="HchXb4zsfwPGnbAuGZYZ-19" value="Lojas" style="text;html=1;points=[];align=left;verticalAlign=top;spacingTop=-4;fontSize=14;fontFamily=Verdana" vertex="1" parent="1DYZK0oK3XWiqWDl5Tdy-1">
                    <mxGeometry x="660" y="175" width="60" height="20" as="geometry"/>
                </mxCell>
                <mxCell id="HchXb4zsfwPGnbAuGZYZ-20" value="Usuários" style="text;html=1;points=[];align=left;verticalAlign=top;spacingTop=-4;fontSize=14;fontFamily=Verdana" vertex="1" parent="1DYZK0oK3XWiqWDl5Tdy-1">
                    <mxGeometry x="740" y="175" width="60" height="20" as="geometry"/>
                </mxCell>
                <mxCell id="HchXb4zsfwPGnbAuGZYZ-21" value="Logout" style="text;html=1;points=[];align=left;verticalAlign=top;spacingTop=-4;fontSize=14;fontFamily=Verdana" vertex="1" parent="1DYZK0oK3XWiqWDl5Tdy-1">
                    <mxGeometry x="990" y="60" width="60" height="20" as="geometry"/>
                </mxCell>
            </root>
        </mxGraphModel>
    </diagram>
</mxfile>